<svg width="149" height="46" viewBox="0 0 149 46" fill="none" xmlns="http://www.w3.org/2000/svg">
<path d="M13.8807 36.4943C11.142 36.4943 8.77841 35.9545 6.78977 34.875C4.8125 33.7841 3.28977 32.233 2.22159 30.2216C1.16477 28.1989 0.636364 25.7955 0.636364 23.0114C0.636364 20.3068 1.17045 17.9432 2.23864 15.9205C3.30682 13.8864 4.8125 12.3068 6.75568 11.1818C8.69886 10.0455 10.9886 9.47727 13.625 9.47727C15.4886 9.47727 17.1932 9.76705 18.7386 10.3466C20.2841 10.9261 21.6193 11.7841 22.7443 12.9205C23.8693 14.0568 24.7443 15.4602 25.3693 17.1307C25.9943 18.7898 26.3068 20.6932 26.3068 22.8409V24.9205H3.55114V20.0795H18.5511C18.5398 19.1932 18.3295 18.4034 17.9205 17.7102C17.5114 17.017 16.9489 16.4773 16.233 16.0909C15.5284 15.6932 14.7159 15.4943 13.7955 15.4943C12.8636 15.4943 12.0284 15.7045 11.2898 16.125C10.5511 16.5341 9.96591 17.0966 9.53409 17.8125C9.10227 18.517 8.875 19.3182 8.85227 20.2159V25.142C8.85227 26.2102 9.0625 27.1477 9.48295 27.9545C9.90341 28.75 10.5 29.3693 11.2727 29.8125C12.0455 30.2557 12.9659 30.4773 14.0341 30.4773C14.7727 30.4773 15.4432 30.375 16.0455 30.1705C16.6477 29.9659 17.1648 29.6648 17.5966 29.267C18.0284 28.8693 18.3523 28.3807 18.5682 27.8011L26.2216 28.0227C25.9034 29.7386 25.2045 31.233 24.125 32.5057C23.0568 33.767 21.6534 34.75 19.9148 35.4545C18.1761 36.1477 16.1648 36.4943 13.8807 36.4943ZM49.4332 11.5568C49.3196 10.3068 48.8139 9.33523 47.9162 8.64205C47.0298 7.9375 45.7628 7.58523 44.1151 7.58523C43.0241 7.58523 42.1151 7.72727 41.3878 8.01136C40.6605 8.29545 40.1151 8.6875 39.7514 9.1875C39.3878 9.67614 39.2003 10.2386 39.1889 10.875C39.1662 11.3977 39.2685 11.858 39.4957 12.2557C39.7344 12.6534 40.0753 13.0057 40.5185 13.3125C40.973 13.608 41.5185 13.8693 42.1548 14.0966C42.7912 14.3239 43.5071 14.5227 44.3026 14.6932L47.3026 15.375C49.0298 15.75 50.5526 16.25 51.8707 16.875C53.2003 17.5 54.3139 18.2443 55.2116 19.108C56.1207 19.9716 56.8082 20.9659 57.2741 22.0909C57.7401 23.2159 57.9787 24.4773 57.9901 25.875C57.9787 28.0795 57.4219 29.9716 56.3196 31.5511C55.2173 33.1307 53.6321 34.3409 51.5639 35.1818C49.5071 36.0227 47.0241 36.4432 44.1151 36.4432C41.1946 36.4432 38.6491 36.0057 36.4787 35.1307C34.3082 34.2557 32.6207 32.9261 31.4162 31.142C30.2116 29.358 29.5923 27.1023 29.5582 24.375H37.6378C37.706 25.5 38.0071 26.4375 38.5412 27.1875C39.0753 27.9375 39.8082 28.5057 40.7401 28.892C41.6832 29.2784 42.7741 29.4716 44.0128 29.4716C45.1491 29.4716 46.1151 29.3182 46.9105 29.0114C47.7173 28.7045 48.3366 28.2784 48.7685 27.733C49.2003 27.1875 49.4219 26.5625 49.4332 25.858C49.4219 25.1989 49.2173 24.6364 48.8196 24.1705C48.4219 23.6932 47.8082 23.2841 46.9787 22.9432C46.1605 22.5909 45.1151 22.267 43.8423 21.9716L40.1946 21.1193C37.1719 20.4261 34.7912 19.3068 33.0526 17.7614C31.3139 16.2045 30.4503 14.1023 30.4616 11.4545C30.4503 9.29545 31.0298 7.40341 32.2003 5.77841C33.3707 4.15341 34.9901 2.88636 37.0582 1.97727C39.1264 1.06818 41.4844 0.613635 44.1321 0.613635C46.8366 0.613635 49.1832 1.07386 51.1719 1.99432C53.1719 2.90341 54.723 4.18182 55.8253 5.82955C56.9276 7.47727 57.4901 9.38636 57.5128 11.5568H49.4332ZM70.5866 21.0682V36H62.2514V1.09091H70.3139V14.625H70.6037C71.1946 13.0114 72.1605 11.75 73.5014 10.8409C74.8537 9.93182 76.5071 9.47727 78.4616 9.47727C80.3026 9.47727 81.9048 9.88636 83.2685 10.7045C84.6321 11.5114 85.6889 12.6534 86.4389 14.1307C87.2003 15.608 87.5753 17.3352 87.5639 19.3125V36H79.2287V20.9489C79.2401 19.4943 78.8764 18.358 78.1378 17.5398C77.3991 16.7216 76.3594 16.3125 75.0185 16.3125C74.1435 16.3125 73.3707 16.5057 72.7003 16.892C72.0412 17.267 71.5241 17.8068 71.1491 18.5114C70.7855 19.2159 70.598 20.0682 70.5866 21.0682ZM104.989 36.4943C102.239 36.4943 99.875 35.9318 97.8977 34.8068C95.9318 33.6705 94.4148 32.0909 93.3466 30.0682C92.2898 28.0341 91.7614 25.6761 91.7614 22.9943C91.7614 20.3011 92.2898 17.9432 93.3466 15.9205C94.4148 13.8864 95.9318 12.3068 97.8977 11.1818C99.875 10.0455 102.239 9.47727 104.989 9.47727C107.739 9.47727 110.097 10.0455 112.062 11.1818C114.04 12.3068 115.557 13.8864 116.614 15.9205C117.682 17.9432 118.216 20.3011 118.216 22.9943C118.216 25.6761 117.682 28.0341 116.614 30.0682C115.557 32.0909 114.04 33.6705 112.062 34.8068C110.097 35.9318 107.739 36.4943 104.989 36.4943ZM105.04 30.2045C106.04 30.2045 106.886 29.8977 107.58 29.2841C108.273 28.6705 108.801 27.8182 109.165 26.7273C109.54 25.6364 109.727 24.375 109.727 22.9432C109.727 21.4886 109.54 20.2159 109.165 19.125C108.801 18.0341 108.273 17.1818 107.58 16.5682C106.886 15.9545 106.04 15.6477 105.04 15.6477C104.006 15.6477 103.131 15.9545 102.415 16.5682C101.71 17.1818 101.17 18.0341 100.795 19.125C100.432 20.2159 100.25 21.4886 100.25 22.9432C100.25 24.375 100.432 25.6364 100.795 26.7273C101.17 27.8182 101.71 28.6705 102.415 29.2841C103.131 29.8977 104.006 30.2045 105.04 30.2045ZM122.486 45.8182V9.81818H130.736V14.3011H130.991C131.332 13.5057 131.815 12.7386 132.44 12C133.077 11.2614 133.884 10.6591 134.861 10.1932C135.849 9.71591 137.031 9.47727 138.406 9.47727C140.224 9.47727 141.923 9.95455 143.503 10.9091C145.094 11.8636 146.378 13.3352 147.355 15.3239C148.332 17.3125 148.821 19.8466 148.821 22.9261C148.821 25.892 148.349 28.375 147.406 30.375C146.474 32.375 145.213 33.875 143.622 34.875C142.043 35.875 140.287 36.375 138.355 36.375C137.037 36.375 135.895 36.1591 134.929 35.7273C133.963 35.2955 133.151 34.7273 132.491 34.0227C131.844 33.3182 131.344 32.5625 130.991 31.7557H130.821V45.8182H122.486ZM130.651 22.9091C130.651 24.3182 130.838 25.5455 131.213 26.5909C131.599 27.6364 132.151 28.4489 132.866 29.0284C133.594 29.5966 134.463 29.8807 135.474 29.8807C136.497 29.8807 137.366 29.5966 138.082 29.0284C138.798 28.4489 139.338 27.6364 139.702 26.5909C140.077 25.5455 140.264 24.3182 140.264 22.9091C140.264 21.5 140.077 20.2784 139.702 19.2443C139.338 18.2102 138.798 17.4091 138.082 16.8409C137.378 16.2727 136.509 15.9886 135.474 15.9886C134.452 15.9886 133.582 16.267 132.866 16.8239C132.151 17.3807 131.599 18.1761 131.213 19.2102C130.838 20.2443 130.651 21.4773 130.651 22.9091Z" fill="#1d4ed8"/>
</svg>
